<svg xmlns="http://www.w3.org/2000/svg" viewBox="0 0 1200 800" role="img" aria-labelledby="title desc">
  <title id="title">Exterior house before painting refresh</title>
  <desc id="desc">Illustration of a faded house exterior before repainting.</desc>
  <rect width="1200" height="800" fill="#d8e5dd"/>
  <path d="M0 520h1200v280H0z" fill="#9aa889"/>
  <path d="M175 345 600 105l425 240v300H175z" fill="#c9bda9"/>
  <path d="M140 350 600 82l460 268-45 65-415-238-415 238z" fill="#786f61"/>
  <rect x="275" y="430" width="180" height="215" fill="#e9dfd0"/>
  <rect x="560" y="430" width="275" height="155" fill="#ebe4d9"/>
  <path d="M250 370c90 28 185 4 270 32M635 360c92 28 180 0 275 26M330 560c80-16 155 8 238-5" stroke="#8f806d" stroke-width="14" stroke-linecap="round" opacity=".35"/>
  <rect x="610" y="465" width="70" height="80" fill="#8a9d9a"/>
  <rect x="705" y="465" width="70" height="80" fill="#8a9d9a"/>
</svg>
